<svg width="20" height="20" viewBox="0 0 20 20" fill="none" xmlns="http://www.w3.org/2000/svg">
<path d="M7.24992 0.916626V2.74996H12.7499V0.916626H14.5833V2.74996H18.2499C18.493 2.74996 18.7262 2.84654 18.8981 3.01844C19.07 3.19035 19.1666 3.42351 19.1666 3.66663V18.3333C19.1666 18.5764 19.07 18.8096 18.8981 18.9815C18.7262 19.1534 18.493 19.25 18.2499 19.25H1.74992C1.5068 19.25 1.27365 19.1534 1.10174 18.9815C0.929829 18.8096 0.833252 18.5764 0.833252 18.3333V3.66663C0.833252 3.42351 0.929829 3.19035 1.10174 3.01844C1.27365 2.84654 1.5068 2.74996 1.74992 2.74996H5.41659V0.916626H7.24992ZM17.3333 9.16663H2.66659V17.4166H17.3333V9.16663ZM12.7829 10.208L14.0791 11.5041L9.54159 16.0416L6.30025 12.8003L7.59825 11.5041L9.5425 13.4493L12.7838 10.208H12.7829ZM5.41659 4.58329H2.66659V7.33329H17.3333V4.58329H14.5833V5.49996H12.7499V4.58329H7.24992V5.49996H5.41659V4.58329Z" fill="black"/>
</svg>
