<svg width="18" height="18" viewBox="0 0 18 18" fill="none" xmlns="http://www.w3.org/2000/svg">
<path d="M9.00008 17.3333C4.39758 17.3333 0.666748 13.6025 0.666748 8.99996C0.666748 4.39746 4.39758 0.666626 9.00008 0.666626C13.6026 0.666626 17.3334 4.39746 17.3334 8.99996C17.3334 13.6025 13.6026 17.3333 9.00008 17.3333ZM9.00008 15.6666C10.7682 15.6666 12.4639 14.9642 13.7141 13.714C14.9644 12.4638 15.6667 10.7681 15.6667 8.99996C15.6667 7.23185 14.9644 5.53616 13.7141 4.28591C12.4639 3.03567 10.7682 2.33329 9.00008 2.33329C7.23197 2.33329 5.53628 3.03567 4.28604 4.28591C3.03579 5.53616 2.33341 7.23185 2.33341 8.99996C2.33341 10.7681 3.03579 12.4638 4.28604 13.714C5.53628 14.9642 7.23197 15.6666 9.00008 15.6666ZM8.16675 4.83329H9.83342V6.49996H8.16675V4.83329ZM8.16675 8.16663H9.83342V13.1666H8.16675V8.16663Z" fill="#898989"/>

</svg>
