<svg width="16" height="18" viewBox="0 0 16 18" fill="none" xmlns="http://www.w3.org/2000/svg">
<path d="M7.99979 13.1666C11.0515 13.1666 13.7206 14.4791 15.1723 16.4375L13.6373 17.1633C12.4556 15.7633 10.3723 14.8333 7.99979 14.8333C5.62729 14.8333 3.54396 15.7633 2.36229 17.1633L0.828125 16.4366C2.27979 14.4783 4.94812 13.1666 7.99979 13.1666ZM7.99979 0.666626C9.10486 0.666626 10.1647 1.10561 10.9461 1.88701C11.7275 2.66842 12.1665 3.72822 12.1665 4.83329V7.33329C12.1664 8.40701 11.7518 9.43926 11.0092 10.2148C10.2666 10.9903 9.25333 11.4492 8.18062 11.4958L7.99979 11.5C6.89472 11.5 5.83491 11.061 5.05351 10.2796C4.27211 9.49817 3.83312 8.43836 3.83312 7.33329V4.83329C3.83319 3.75957 4.24774 2.72732 4.99034 1.95181C5.73294 1.1763 6.74625 0.717392 7.81896 0.670793L7.99979 0.666626ZM7.99979 2.33329C7.36212 2.33326 6.74853 2.5769 6.28457 3.01436C5.82062 3.45183 5.54137 4.05005 5.50396 4.68663L5.49979 4.83329V7.33329C5.49916 7.98405 5.75231 8.6094 6.20543 9.07647C6.65856 9.54355 7.27595 9.81553 7.92643 9.83463C8.5769 9.85372 9.20919 9.61843 9.68893 9.17874C10.1687 8.73906 10.4581 8.12963 10.4956 7.47996L10.4998 7.33329V4.83329C10.4998 4.17025 10.2364 3.53437 9.76756 3.06553C9.29872 2.59669 8.66283 2.33329 7.99979 2.33329Z" fill="black"/>
</svg>
