<svg width="185" height="50" viewBox="0 0 185 50" fill="none" xmlns="http://www.w3.org/2000/svg">
<mask id="mask0" mask-type="alpha" maskUnits="userSpaceOnUse" x="0" y="-1" width="185" height="51">
<path fill-rule="evenodd" clip-rule="evenodd" d="M0 49.9998H185V-0.000244141H0V49.9998Z" fill="white"/>
</mask>
<g mask="url(#mask0)">
<path fill-rule="evenodd" clip-rule="evenodd" d="M86.9114 17.9035H88.1729C89.4107 17.9035 90.1404 17.2609 90.1404 16.063C90.1404 14.8724 89.4107 14.2298 88.1891 14.2298H86.9114V17.9035ZM88.9588 12.0007C91.4182 12.0007 93.0844 13.5946 93.0844 16.0555C93.0844 18.4987 91.3311 20.0925 88.7845 20.0925H86.9114V23.4486H84V12.0007H88.9588Z" fill="#002930"/>
<path fill-rule="evenodd" clip-rule="evenodd" d="M96.8828 21.1007H98.2388C100.135 21.1007 101.152 19.95 101.152 17.6648C101.152 15.5156 100.081 14.3487 98.2388 14.3487H96.8828V21.1007ZM98.62 12C102.079 12 104.111 14.0074 104.111 17.6575C104.111 21.3149 102.072 23.4493 98.62 23.4493H93.9714V12H98.62Z" fill="#002930"/>
<path fill-rule="evenodd" clip-rule="evenodd" d="M108.029 17.9034H109.29C110.528 17.9034 111.258 17.2608 111.258 16.0629C111.258 14.8723 110.528 14.2297 109.306 14.2297H108.029V17.9034ZM110.076 12.0007C112.535 12.0007 114.202 13.5946 114.202 16.0555C114.202 18.4987 112.448 20.0925 109.902 20.0925H108.029V23.4486H105.117V12.0007H110.076Z" fill="#002930"/>
<path fill-rule="evenodd" clip-rule="evenodd" d="M84 40.8011H86.9114V29.3533H84V40.8011Z" fill="#002930"/>
<path fill-rule="evenodd" clip-rule="evenodd" d="M90.893 40.8019V31.7012H87.7349V29.354H96.9552V31.7012H93.7971V40.8019H90.893Z" fill="#002930"/>
<path fill-rule="evenodd" clip-rule="evenodd" d="M96.9131 37.4141H105.037V34.9148H96.9131V37.4141Z" fill="#002930"/>
<path fill-rule="evenodd" clip-rule="evenodd" d="M109.121 36.1924H111.731L110.462 31.7817H110.399L109.121 36.1924ZM112.303 38.287H108.558L107.829 40.8026H104.861L108.709 29.3533H112.27L116.118 40.8026H113.025L112.303 38.287Z" fill="#002930"/>
<path fill-rule="evenodd" clip-rule="evenodd" d="M115.808 35.0737C115.808 31.3365 117.959 29.1548 121.37 29.1548C124.266 29.1548 126.463 31.0189 126.55 33.7251H123.749C123.607 32.3764 122.647 31.4872 121.37 31.4872C119.783 31.4872 118.776 32.8447 118.776 35.0663C118.776 37.3116 119.776 38.6676 121.378 38.6676C122.655 38.6676 123.584 37.8271 123.765 36.4858H126.566C126.432 39.2067 124.321 41 121.37 41C117.943 41 115.808 38.8183 115.808 35.0737Z" fill="#002930"/>
<path fill-rule="evenodd" clip-rule="evenodd" d="M130.548 36.1924H133.158L131.889 31.7817H131.825L130.548 36.1924ZM133.729 38.287H129.985L129.255 40.8026H126.288L130.136 29.3533H133.697L137.545 40.8026H134.452L133.729 38.287Z" fill="#002930"/>
<path fill-rule="evenodd" clip-rule="evenodd" d="M141.146 38.4535H142.502C144.398 38.4535 145.415 37.3028 145.415 35.0176C145.415 32.8684 144.344 31.7014 142.502 31.7014H141.146V38.4535ZM142.883 29.3528C146.342 29.3528 148.373 31.3602 148.373 35.0102C148.373 38.6676 146.335 40.8021 142.883 40.8021H138.234V29.3528H142.883Z" fill="#002930"/>
<path fill-rule="evenodd" clip-rule="evenodd" d="M157.227 40.8019H149.38V29.354H157.227V31.7012H152.292V33.9789H156.933V36.1208H152.292V38.4532H157.227V40.8019Z" fill="#002930"/>
<path fill-rule="evenodd" clip-rule="evenodd" d="M168.467 40.8019V33.654H168.41L165.579 40.8019H163.913L161.088 33.654H161.025V40.8019H158.462V29.354H161.825L164.713 36.8343H164.777L167.666 29.354H171.029V40.8019H168.467Z" fill="#002930"/>
<path fill-rule="evenodd" clip-rule="evenodd" d="M175.661 40.8019V36.8668L171.719 29.354H174.844L177.121 34.1134H177.177L179.446 29.354H182.517L178.573 36.8668V40.8019H175.661Z" fill="#002930"/>
<path fill-rule="evenodd" clip-rule="evenodd" d="M16.8163 8.24146C7.54471 8.24146 -0.000488281 15.7854 -0.000488281 25.0583C-0.000488281 34.3299 7.54471 41.8738 16.8163 41.8738C26.0879 41.8738 33.6318 34.3299 33.6318 25.0583C33.6318 15.7854 26.0879 8.24146 16.8163 8.24146Z" fill="#00B533"/>
<path fill-rule="evenodd" clip-rule="evenodd" d="M44.9574 50.115H34.6042L46.8411 0H57.1943L44.9574 50.115Z" fill="#002930"/>
<path fill-rule="evenodd" clip-rule="evenodd" d="M60.0229 50.115H49.6697L61.9066 0H72.2611L60.0229 50.115Z" fill="#002930"/>
</g>
</svg>
