<svg width="20" height="20" viewBox="0 0 20 20" fill="none" xmlns="http://www.w3.org/2000/svg">
<path d="M4.00767 3.06363C5.67101 1.62232 7.79899 0.830312 9.99992 0.833383C15.0627 0.833383 19.1666 4.9373 19.1666 10C19.1666 11.958 18.5524 13.773 17.5074 15.2617L14.5833 10H17.3333C17.3334 8.56237 16.9109 7.15637 16.1184 5.95687C15.3258 4.75736 14.1982 3.81728 12.8757 3.2535C11.5531 2.68971 10.0941 2.52711 8.67988 2.7859C7.26568 3.04469 5.95875 3.71346 4.92159 4.70905L4.00767 3.06363ZM15.9922 16.9365C14.3288 18.3778 12.2008 19.1698 9.99992 19.1667C4.93717 19.1667 0.833252 15.0628 0.833252 10C0.833252 8.04205 1.44742 6.22705 2.49242 4.73838L5.41659 10H2.66659C2.66647 11.4377 3.08894 12.8437 3.88148 14.0432C4.67401 15.2427 5.80165 16.1828 7.12417 16.7466C8.44669 17.3104 9.90576 17.473 11.32 17.2142C12.7342 16.9554 14.0411 16.2866 15.0783 15.291L15.9922 16.9365Z" fill="black"/>
</svg>
