<svg width="20" height="20" viewBox="0 0 20 20" fill="none" xmlns="http://www.w3.org/2000/svg">
<path d="M15.5283 14.2322L19.4544 18.1573L18.1573 19.4544L14.2322 15.5283C12.7717 16.6991 10.9551 17.3359 9.08325 17.3333C4.52925 17.3333 0.833252 13.6373 0.833252 9.08325C0.833252 4.52925 4.52925 0.833252 9.08325 0.833252C13.6373 0.833252 17.3333 4.52925 17.3333 9.08325C17.3359 10.9551 16.6991 12.7717 15.5283 14.2322ZM13.6895 13.552C14.8529 12.3556 15.5025 10.752 15.4999 9.08325C15.4999 5.53758 12.628 2.66659 9.08325 2.66659C5.53759 2.66659 2.66659 5.53758 2.66659 9.08325C2.66659 12.628 5.53759 15.4999 9.08325 15.4999C10.752 15.5025 12.3556 14.8529 13.552 13.6895L13.6895 13.552Z" fill="black"/>
</svg>
